<svg width="240" height="36" viewBox="0 0 240 36" fill="none" xmlns="http://www.w3.org/2000/svg">
<path d="M4.32024 27.72C3.52824 27.72 2.79624 27.528 2.12424 27.144C1.47624 26.76 0.960244 26.244 0.576244 25.596C0.192244 24.924 0.000244141 24.192 0.000244141 23.4V6.12C0.000244141 5.328 0.192244 4.608 0.576244 3.96C0.960244 3.288 1.47624 2.76 2.12424 2.376C2.79624 1.992 3.52824 1.8 4.32024 1.8H21.6002C22.3922 1.8 23.1122 1.992 23.7602 2.376C24.4322 2.76 24.9602 3.288 25.3442 3.96C25.7282 4.608 25.9202 5.328 25.9202 6.12V23.4C25.9202 24.192 25.7282 24.924 25.3442 25.596C24.9602 26.244 24.4322 26.76 23.7602 27.144C23.1122 27.528 22.3922 27.72 21.6002 27.72H4.32024ZM4.32024 24.804H21.6002C21.9842 24.804 22.3082 24.672 22.5722 24.408C22.8602 24.12 23.0042 23.784 23.0042 23.4V6.12C23.0042 5.736 22.8602 5.412 22.5722 5.148C22.3082 4.86 21.9842 4.716 21.6002 4.716H4.32024C3.93624 4.716 3.60024 4.86 3.31224 5.148C3.04824 5.412 2.91624 5.736 2.91624 6.12V23.4C2.91624 23.784 3.04824 24.12 3.31224 24.408C3.60024 24.672 3.93624 24.804 4.32024 24.804Z" fill="white"/>
<path d="M40.7927 27.72C40.0007 27.72 39.2687 27.528 38.5967 27.144C37.9487 26.736 37.4207 26.208 37.0127 25.56C36.6287 24.888 36.4367 24.156 36.4367 23.364V6.84H39.3887V23.364C39.3887 23.748 39.5207 24.084 39.7847 24.372C40.0727 24.636 40.4087 24.768 40.7927 24.768H53.3207C53.7047 24.768 54.0407 24.636 54.3287 24.372C54.6167 24.084 54.7607 23.748 54.7607 23.364V6.84H57.7127V23.364C57.7127 24.156 57.5087 24.888 57.1007 25.56C56.7167 26.208 56.1887 26.736 55.5167 27.144C54.8687 27.528 54.1367 27.72 53.3207 27.72H40.7927Z" fill="white"/>
<path d="M71.9566 27.72C71.1406 27.72 70.3966 27.528 69.7246 27.144C69.0766 26.736 68.5607 26.208 68.1767 25.56C67.7926 24.888 67.6006 24.156 67.6006 23.364V0H70.5527V6.84H79.5887V9.792H70.5527V23.364C70.5527 23.748 70.6847 24.084 70.9487 24.372C71.2367 24.636 71.5726 24.768 71.9566 24.768H79.5887V27.72H71.9566Z" fill="white"/>
<path d="M93.2743 27.72C92.4823 27.72 91.7503 27.528 91.0783 27.144C90.4303 26.76 89.9143 26.244 89.5303 25.596C89.1463 24.924 88.9543 24.192 88.9543 23.4V22.392H91.8703V23.4C91.8703 23.784 92.0023 24.12 92.2663 24.408C92.5543 24.672 92.8903 24.804 93.2743 24.804H110.554C110.938 24.804 111.262 24.672 111.526 24.408C111.814 24.12 111.958 23.784 111.958 23.4V17.604C111.958 17.22 111.814 16.896 111.526 16.632C111.262 16.368 110.938 16.236 110.554 16.236H93.2743C92.4823 16.236 91.7503 16.044 91.0783 15.66C90.4303 15.252 89.9143 14.724 89.5303 14.076C89.1463 13.428 88.9543 12.708 88.9543 11.916V6.12C88.9543 5.328 89.1463 4.608 89.5303 3.96C89.9143 3.288 90.4303 2.76 91.0783 2.376C91.7503 1.992 92.4823 1.8 93.2743 1.8H110.554C111.346 1.8 112.066 1.992 112.714 2.376C113.386 2.76 113.914 3.288 114.298 3.96C114.682 4.608 114.874 5.328 114.874 6.12V7.128H111.958V6.12C111.958 5.736 111.814 5.412 111.526 5.148C111.262 4.86 110.938 4.716 110.554 4.716H93.2743C92.8903 4.716 92.5543 4.86 92.2663 5.148C92.0023 5.412 91.8703 5.736 91.8703 6.12V11.916C91.8703 12.3 92.0023 12.624 92.2663 12.888C92.5543 13.152 92.8903 13.284 93.2743 13.284H110.554C111.346 13.284 112.066 13.488 112.714 13.896C113.386 14.28 113.914 14.796 114.298 15.444C114.682 16.092 114.874 16.812 114.874 17.604V23.4C114.874 24.192 114.682 24.924 114.298 25.596C113.914 26.244 113.386 26.76 112.714 27.144C112.066 27.528 111.346 27.72 110.554 27.72H93.2743Z" fill="white"/>
<path d="M125.324 36V6.84H142.244C143.036 6.84 143.756 7.044 144.404 7.452C145.076 7.836 145.604 8.364 145.988 9.036C146.396 9.684 146.6 10.404 146.6 11.196V23.364C146.6 24.156 146.396 24.888 145.988 25.56C145.604 26.208 145.076 26.736 144.404 27.144C143.756 27.528 143.036 27.72 142.244 27.72H128.276V36H125.324ZM129.716 24.768H142.244C142.628 24.768 142.952 24.636 143.216 24.372C143.504 24.084 143.648 23.748 143.648 23.364V11.196C143.648 10.812 143.504 10.488 143.216 10.224C142.952 9.936 142.628 9.792 142.244 9.792H129.716C129.332 9.792 128.996 9.936 128.708 10.224C128.42 10.488 128.276 10.812 128.276 11.196V23.364C128.276 23.748 128.42 24.084 128.708 24.372C128.996 24.636 129.332 24.768 129.716 24.768Z" fill="white"/>
<path d="M160.174 27.72C159.382 27.72 158.65 27.528 157.978 27.144C157.33 26.736 156.802 26.208 156.394 25.56C156.01 24.888 155.818 24.156 155.818 23.364V15.804H174.106V11.196C174.106 10.812 173.962 10.488 173.674 10.224C173.41 9.936 173.086 9.792 172.702 9.792H155.818V6.84H172.702C173.518 6.84 174.25 7.044 174.898 7.452C175.57 7.836 176.098 8.364 176.482 9.036C176.89 9.684 177.094 10.404 177.094 11.196V27.72H160.174ZM160.174 24.768H174.106V18.756H158.77V23.364C158.77 23.748 158.902 24.084 159.166 24.372C159.454 24.636 159.79 24.768 160.174 24.768Z" fill="white"/>
<path d="M191.443 27.72C190.651 27.72 189.919 27.528 189.247 27.144C188.599 26.736 188.071 26.208 187.663 25.56C187.279 24.888 187.087 24.156 187.087 23.364V11.196C187.087 10.404 187.279 9.684 187.663 9.036C188.071 8.364 188.599 7.836 189.247 7.452C189.919 7.044 190.651 6.84 191.443 6.84H208.291V9.792H191.443C191.059 9.792 190.723 9.936 190.435 10.224C190.171 10.488 190.039 10.812 190.039 11.196V23.364C190.039 23.748 190.171 24.084 190.435 24.372C190.723 24.636 191.059 24.768 191.443 24.768H208.363V27.72H191.443Z" fill="white"/>
<path d="M222.22 27.72C221.428 27.72 220.696 27.528 220.024 27.144C219.376 26.736 218.848 26.208 218.44 25.56C218.056 24.888 217.864 24.156 217.864 23.364V11.196C217.864 10.404 218.056 9.684 218.44 9.036C218.848 8.364 219.376 7.836 220.024 7.452C220.696 7.044 221.428 6.84 222.22 6.84H234.748C235.564 6.84 236.296 7.044 236.944 7.452C237.616 7.836 238.144 8.364 238.528 9.036C238.936 9.684 239.14 10.404 239.14 11.196V18.756H220.816V23.364C220.816 23.748 220.948 24.084 221.212 24.372C221.5 24.636 221.836 24.768 222.22 24.768H239.14V27.72H222.22ZM220.816 15.804H236.152V11.196C236.152 10.812 236.008 10.488 235.72 10.224C235.456 9.936 235.132 9.792 234.748 9.792H222.22C221.836 9.792 221.5 9.936 221.212 10.224C220.948 10.488 220.816 10.812 220.816 11.196V15.804Z" fill="white"/>
</svg>
