<svg width="76" height="76" viewBox="0 0 76 76" fill="none" xmlns="http://www.w3.org/2000/svg">
<path d="M41.4702 0.14995C48.3734 0.706279 54.9038 3.12901 60.0501 7.02331C62.2151 8.67435 65.6755 11.9944 67.2017 13.8787C68.6923 15.7451 70.1475 17.9345 70.2895 18.5447C70.4492 19.1908 70.3604 19.119 69.2424 17.4679C68.16 15.8707 64.8947 12.6045 62.9249 11.115C62.0731 10.469 60.6357 9.48193 59.7307 8.90765C58.8079 8.35132 57.9561 7.79499 57.8496 7.68732C57.7254 7.57964 57.5657 7.50785 57.4947 7.50785C57.1753 7.50785 56.7317 7.2925 56.7317 7.13099C56.7317 7.02331 56.6607 6.98742 56.5719 7.0592C56.4832 7.11304 56.2703 7.00536 56.0928 6.84385C55.9153 6.66439 55.7379 6.53877 55.6846 6.55671C55.454 6.64644 54.7796 6.37725 54.7796 6.19779C54.7796 6.09011 54.7264 6.05422 54.6731 6.12601C54.5844 6.19779 53.147 5.78503 52.2952 5.40816C52.1532 5.35432 51.9403 5.28254 51.8161 5.24665C51.6918 5.2287 51.053 5.06718 50.3964 4.90567C46.936 4.02631 42.7479 3.73917 38.9858 4.0981C37.6726 4.24166 36.3949 4.3314 36.1465 4.3314C35.8981 4.31345 35.6141 4.38523 35.5254 4.45702C35.4189 4.54675 35.0285 4.65443 34.6381 4.70826C34.2477 4.7621 33.5024 4.92362 32.9878 5.06719C32.4909 5.21075 32.065 5.28254 32.065 5.2287C32.065 5.17486 31.9585 5.21075 31.8343 5.31843C31.7101 5.42611 31.3729 5.55173 31.0889 5.60557C30.7873 5.64146 30.5388 5.6953 30.5033 5.71324C30.4856 5.74914 30.4146 5.76708 30.3259 5.80298C30.2549 5.82092 30.0597 5.89271 29.9 5.96449C29.7403 6.03627 29.5096 6.10806 29.3676 6.14395C29.2434 6.1619 29.0304 6.23368 28.9062 6.30547C28.7997 6.3952 28.6933 6.3952 28.6933 6.30547C28.6933 6.23368 28.6223 6.25163 28.5513 6.37725C28.4803 6.48493 28.2674 6.61055 28.0722 6.64644C27.877 6.66439 27.664 6.77206 27.6108 6.84385C27.5575 6.93358 27.3978 7.00536 27.2559 7.02331C27.1139 7.0592 26.2266 7.48991 25.2683 8.01035C24.31 8.51284 23.4582 8.94354 23.3873 8.94354C23.2985 8.94354 23.1921 9.01533 23.1566 9.08711C23.1211 9.1589 22.5887 9.5896 21.9676 10.0203C18.8266 12.2277 15.029 16.2835 12.8285 19.783C9.01315 25.8308 7.20308 33.0452 7.7532 40.0262C7.9484 42.5027 8.00164 42.9335 8.30332 44.2974C9.54553 49.8427 11.2136 53.6652 14.1062 57.5775C19.4299 64.7559 27.0074 69.5116 36.0578 71.3421C38.3292 71.7908 44.1321 71.7908 46.2616 71.3421C52.0645 70.0859 57.0866 67.717 61.523 64.0919C64.5753 61.6153 68.2487 57.2544 70.3072 53.7191C73.4127 48.3711 75.1873 41.8387 75.1873 35.7191C75.1873 33.5118 74.8501 30.4609 74.4597 29.0073C74.2823 28.3433 74.3355 27.9485 74.5839 28.1997C74.6372 28.2535 74.8324 28.9714 74.9921 29.7969C75.9326 34.2475 76.1633 37.101 75.8971 40.9055C75.7197 43.2385 75.2228 46.4868 74.7614 48.066C74.7259 48.2096 74.6372 48.5685 74.5484 48.8736C74.0516 50.9554 71.7624 55.8726 70.0942 58.4748C66.758 63.6612 61.8424 68.3272 56.8204 71.0729C54.9038 72.1138 53.9278 72.5625 53.6616 72.5086C53.5906 72.4907 53.5374 72.5445 53.5374 72.6342C53.5374 72.7599 52.2242 73.388 51.7628 73.4777C51.7096 73.4777 51.5321 73.5495 51.3724 73.6213C51.2127 73.6931 50.982 73.7649 50.84 73.8007C50.7158 73.8187 50.5029 73.8905 50.3964 73.9623C50.2722 74.052 49.9882 74.1417 49.7753 74.1956C49.2429 74.3212 49.0655 74.375 48.746 74.5006C48.6041 74.5724 48.3201 74.6442 48.1249 74.6801C47.9297 74.716 47.4506 74.8416 47.0602 74.9493C46.6698 75.057 46.0664 75.1826 45.7292 75.2364C45.3921 75.2723 44.9839 75.3621 44.8242 75.4338C44.6645 75.4877 44.0789 75.5774 43.4933 75.6133C42.9254 75.6492 41.7719 75.7748 40.9379 75.8825C38.5777 76.2055 31.4616 75.8107 30.8937 75.3262C30.7873 75.2364 30.663 75.2185 30.6098 75.2723C30.4501 75.4159 27.2736 74.6083 27.2736 74.4289C27.2736 74.3212 27.2026 74.2853 27.1139 74.3571C26.9364 74.4648 23.547 73.2983 23.3873 73.065C23.334 72.9932 23.1211 72.9034 22.9259 72.8675C21.7901 72.6701 16.5374 69.3501 14.4611 67.5196C13.2367 66.4249 12.1187 65.2943 12.2606 65.2943C12.3139 65.2943 12.8995 65.7071 13.5561 66.2095C21.3465 72.1318 28.6933 74.9852 36.1288 74.9852C37.1403 74.9852 37.9211 74.9314 37.8501 74.8416C37.7259 74.7339 36.3772 74.4289 34.7446 74.1776C34.4074 74.1238 34.0348 74.0161 33.946 73.9264C33.8395 73.8546 33.5201 73.7828 33.2362 73.7649C32.9345 73.7469 32.6506 73.6392 32.5973 73.5495C32.5264 73.4418 32.3489 73.4059 32.1892 73.4777C32.0117 73.5495 31.8875 73.4957 31.8875 73.37C31.8875 73.2444 31.781 73.1906 31.6568 73.2444C31.5503 73.2803 31.2487 73.2444 31.0002 73.1367C30.7518 73.047 30.3969 72.9214 30.2017 72.8855C30.0065 72.8496 29.829 72.7419 29.7935 72.6522C29.758 72.5625 29.616 72.5445 29.4741 72.5984C29.3321 72.6522 29.2256 72.5984 29.2256 72.4727C29.2256 72.3471 29.1014 72.2933 28.9594 72.3651C28.8175 72.4189 28.5868 72.3292 28.4271 72.1856C28.2851 72.0241 28.1609 71.9523 28.1609 72.0061C28.1609 72.06 27.9124 72.0061 27.6285 71.9164C27.3268 71.8087 27.0961 71.6472 27.0961 71.5395C27.0961 71.4498 27.0252 71.4139 26.9364 71.4857C26.8477 71.5395 26.6702 71.4857 26.5283 71.3601C26.4041 71.2345 26.1734 71.1088 26.0314 71.0729C25.5877 70.9832 24.2568 70.2474 24.2568 70.0859C24.2568 69.9962 24.1858 69.9782 24.1148 70.0321C24.0261 70.0859 23.7777 69.9603 23.5825 69.7629C23.3695 69.5655 23.1921 69.4578 23.1921 69.5116C23.1921 69.5475 22.7839 69.3501 22.3048 69.045C21.8079 68.7399 21.4175 68.4169 21.4175 68.3272C21.4175 68.2375 21.3287 68.1657 21.2045 68.1657C20.9028 68.1657 18.9863 66.712 17.7796 65.5455C17.3892 65.1687 17.0165 64.8636 16.9633 64.8815C16.8745 64.9174 15.2774 63.2843 13.698 61.5256C12.0654 59.7131 9.98917 56.4648 8.72922 53.755C7.89517 51.9603 6.77718 48.8198 6.63521 47.9225C6.58198 47.6174 6.49325 47.2944 6.44001 47.2046C6.24481 46.8816 5.78341 44.405 5.51723 42.3233C4.43473 33.4938 7.04337 23.9285 12.4558 16.9296C13.84 15.1529 17.1407 11.8867 19.0218 10.4331C23.1566 7.27456 27.1494 5.31843 32.1537 4.00837C34.7801 3.32641 36.9628 3.02133 40.2635 2.89571C42.9964 2.78803 43.7595 2.6624 42.9254 2.44705C42.7302 2.39321 41.0089 2.33937 39.0568 2.33937C36.3062 2.33937 35.1705 2.41116 33.9283 2.66241C33.0587 2.84187 32.2779 2.94955 32.2069 2.91365C32.1359 2.85982 31.9407 2.91365 31.7633 3.00338C31.4971 3.1649 30.3081 3.48793 28.8707 3.8289C28.7288 3.8648 28.2851 4.02631 27.8947 4.18783C27.5043 4.36729 27.1671 4.49291 27.1494 4.47496C26.8832 4.38523 23.0501 6.17984 21.1513 7.27456C17.957 9.123 14.6918 11.8867 12.0832 14.9734C4.29277 24.1618 1.24049 36.5985 3.77814 48.8377C3.9201 49.5556 4.41699 51.2963 4.89612 52.732C6.4755 57.4698 6.42226 57.7749 4.66543 54.2036C3.31675 51.4579 2.83761 50.2375 2.00356 47.5277C1.66639 46.3971 1.38245 45.5895 1.36471 45.733C1.36471 46.1099 2.16327 49.3582 2.60691 50.74C3.12154 52.391 2.90859 52.2834 2.26974 50.5785C1.61315 48.8736 0.637128 44.9075 0.619383 43.8487C0.601637 43.4539 0.530653 43.0411 0.45967 42.9514C0.228975 42.6463 -0.108196 37.6214 0.0337706 36.4011C0.0870081 35.755 0.175737 34.6782 0.228975 33.9784C0.33545 32.2376 1.02754 28.9714 1.80835 26.5307C4.87838 16.9475 11.9412 8.459 20.4947 4.11604C27.0606 0.778068 33.6621 -0.460218 41.4702 0.14995ZM31.7633 1.24466C31.2487 1.35234 30.5921 1.44207 30.2904 1.44207C29.9887 1.46001 29.7048 1.5318 29.6515 1.62153C29.5983 1.71126 29.4031 1.72921 29.2079 1.67537C29.0127 1.60358 28.8707 1.63948 28.8707 1.7651C28.8707 1.87278 28.782 1.90867 28.6933 1.85483C28.5868 1.78304 28.3916 1.83688 28.2496 1.94456C28.1077 2.05224 27.9124 2.10607 27.7882 2.03429C27.6817 1.96251 27.522 1.9984 27.4511 2.12402C27.3801 2.24964 27.1139 2.33937 26.8477 2.33937C26.5993 2.33937 26.3863 2.42911 26.3863 2.51884C26.3863 2.62652 26.2798 2.66241 26.1379 2.60857C25.9959 2.55473 25.8539 2.57268 25.8184 2.66241C25.7829 2.75214 25.6055 2.85981 25.4103 2.89571C25.0731 2.96749 24.9489 3.00338 24.1681 3.30847C23.9729 3.38025 23.7599 3.41614 23.6712 3.41614C23.6002 3.3982 23.547 3.45204 23.547 3.55971C23.547 3.64944 23.4228 3.68534 23.2808 3.6315C23.1388 3.55971 23.0146 3.61355 23.0146 3.73917C23.0146 3.84685 22.9259 3.88274 22.8371 3.8289C22.7307 3.77507 22.6597 3.81096 22.6597 3.91863C22.6597 4.02631 22.571 4.0622 22.4822 4.00837C22.3758 3.95453 22.3048 3.99042 22.3048 4.0981C22.3048 4.20577 22.216 4.24166 22.1273 4.18783C22.0208 4.13399 21.9499 4.16988 21.9499 4.27756C21.9499 4.38523 21.8789 4.43907 21.7901 4.38523C21.7014 4.31345 21.5949 4.36729 21.5594 4.45702C21.524 4.56469 21.382 4.67237 21.24 4.69032C21.0981 4.70826 20.7786 4.86978 20.5479 5.03129C20.3172 5.21075 20.0511 5.30048 19.9623 5.24665C19.8913 5.19281 19.8204 5.24665 19.8204 5.35432C19.8204 5.462 19.7494 5.51584 19.6784 5.462C19.5897 5.40816 19.359 5.53378 19.146 5.71324C18.9331 5.91065 18.7201 6.07217 18.6669 6.07217C18.6136 6.07217 18.4717 6.1619 18.3475 6.25163C18.2232 6.3593 17.4602 6.93358 16.6439 7.5258C15.8453 8.11802 15.2064 8.6564 15.2774 8.71024C15.3307 8.76408 16.2357 8.24364 17.2827 7.56169C20.9738 5.15692 24.0084 3.70328 27.6285 2.60857C29.7225 1.98046 30.3969 1.81894 33.3072 1.22672C34.9043 0.903686 34.9398 0.88574 33.8396 0.97547C33.2007 1.02931 32.2602 1.15493 31.7633 1.24466Z" fill="white"/>
<path d="M40.5829 13.9325C41.2218 13.9864 41.3105 14.0402 41.0266 14.1658C40.7959 14.2735 40.9733 14.2915 41.559 14.2197C42.2155 14.1479 42.3753 14.1658 42.1801 14.3094C41.9849 14.453 42.0381 14.4889 42.464 14.3991C42.8012 14.3274 43.0674 14.3812 43.1383 14.4889C43.2093 14.5966 43.3335 14.6504 43.4223 14.5966C43.653 14.453 45.0194 14.8837 45.0194 15.0811C45.0194 15.1708 45.0904 15.2067 45.1791 15.1529C45.3921 15.0093 47.8232 16.0681 49.4736 17.0193C50.7335 17.7371 53.005 19.2984 53.005 19.442C53.005 19.4779 52.8276 19.4958 52.6323 19.4779C52.4194 19.4599 52.0822 19.2266 51.887 18.9575C51.6918 18.6883 51.4789 18.5088 51.4079 18.5447C51.3546 18.5806 50.8578 18.3473 50.3254 18.0063C49.793 17.6653 49.0832 17.2526 48.746 17.0911C48.4088 16.9295 47.9829 16.7321 47.8232 16.6424C47.4328 16.445 46.9714 16.4271 46.9892 16.6065C47.0424 16.9475 46.9359 16.9834 46.4036 16.8398C46.0486 16.7321 45.7647 16.7321 45.6227 16.8578C45.4808 16.9834 44.9839 17.0013 44.2741 16.9116C43.653 16.8398 42.8721 16.8039 42.535 16.8039C42.0736 16.8219 41.9849 16.768 42.1801 16.6245C42.393 16.4809 42.393 16.4629 42.1268 16.5527C41.6832 16.6962 40.3167 16.4629 40.5829 16.3014C40.9201 16.0861 40.4587 15.8887 39.9618 16.0143C39.4117 16.1579 38.8616 15.9605 39.1988 15.7451C39.3762 15.6195 39.3762 15.5836 39.1633 15.5656C38.8971 15.5477 38.4889 15.4939 37.4774 15.3144C35.3302 14.9555 33.1119 15.0093 30.6453 15.5118C29.758 15.6913 30.7872 15.2247 32.2247 14.776C34.9398 13.9684 37.8501 13.6634 40.5829 13.9325Z" fill="white"/>
<path d="M48.9057 17.8807C49.5446 18.437 49.6511 18.6344 49.5623 18.9575C49.4913 19.1728 49.3494 19.3523 49.2429 19.3523C49.1364 19.3523 49.1364 19.2446 49.2784 19.0831C49.4736 18.8498 49.4204 18.8139 49.0299 18.8139C48.7815 18.8139 48.5686 18.9036 48.5686 19.0293C48.5686 19.2984 48.3379 19.0472 48.2846 18.7062C48.2491 18.4909 48.3733 18.4729 48.888 18.5627C49.4913 18.6883 49.5268 18.6703 49.2961 18.4011C49.1719 18.2217 48.959 18.0961 48.817 18.0961C48.6928 18.0961 48.5153 17.9884 48.4443 17.8448C48.3733 17.7192 48.1781 17.5756 48.0362 17.5218C47.8942 17.4859 47.8587 17.3962 47.9652 17.3244C48.0717 17.2705 48.4976 17.5218 48.9057 17.8807Z" fill="white"/>
<path d="M46.794 18.0781C46.794 18.1678 47.0779 18.2935 47.4151 18.3473C47.8765 18.437 48.0362 18.5626 48.0362 18.8139C48.0362 19.119 47.912 19.1728 47.1844 19.1728C46.723 19.1728 46.0664 19.0651 45.6938 18.9395C45.1614 18.7421 45.0904 18.6524 45.2146 18.4011C45.3211 18.2396 45.5695 18.114 45.7825 18.114C46.1019 18.1319 46.1197 18.1499 45.8535 18.2217C45.676 18.2755 45.5518 18.3832 45.5873 18.4909C45.6938 18.778 46.3504 18.9754 46.6165 18.8139C46.8295 18.6883 46.8117 18.5806 46.5456 18.2935C46.2439 17.9525 46.2439 17.9166 46.4923 17.9166C46.6698 17.9166 46.794 17.9884 46.794 18.0781Z" fill="white"/>
<path d="M50.2544 18.8139C50.3077 18.9036 50.3077 18.9934 50.2189 18.9934C50.1479 18.9934 50.2012 19.0831 50.3432 19.1728C50.4851 19.2626 50.5206 19.3523 50.4319 19.3523C50.3254 19.3523 50.1302 19.2626 49.9882 19.1728C49.793 19.0472 49.793 18.9934 49.9527 18.9934C50.077 18.9934 50.1302 18.9036 50.077 18.8139C50.0237 18.7062 50.006 18.6344 50.0592 18.6344C50.1125 18.6344 50.2012 18.7062 50.2544 18.8139Z" fill="white"/>
<path d="M51.053 20.1599C51.195 20.3214 51.195 20.429 51.0885 20.429C50.7691 20.429 50.3432 20.2137 50.3432 20.0522C50.3432 19.8009 50.8045 19.8727 51.053 20.1599Z" fill="white"/>
<path d="M48.3556 21.5417C48.4443 21.6314 49.1542 21.7032 49.9527 21.7212C50.7513 21.7391 51.4079 21.8109 51.4079 21.9006C51.4079 21.9724 51.6208 22.0442 51.887 22.0442L52.3839 22.0621L51.8515 22.3134L51.3192 22.5467L51.9403 22.5826C52.4371 22.6005 52.4904 22.6364 52.2065 22.7441C52.0112 22.8338 51.7451 22.8518 51.6208 22.7979C51.4966 22.762 51.4079 22.8338 51.4434 22.9594C51.4789 23.1389 51.3014 23.2107 50.8223 23.2286C49.6865 23.2645 49.1897 24.1977 50.3076 24.1977C50.7868 24.1977 51.5499 24.5566 51.0885 24.5566C50.982 24.5566 50.8755 24.6643 50.8755 24.8079C50.8755 24.9515 50.982 25.095 51.0885 25.1489C51.4789 25.2924 52.4726 25.0591 52.4726 24.8258C52.4726 24.431 52.8985 24.3951 53.3422 24.7541C53.5729 24.9515 53.6616 25.095 53.5374 25.095C53.4132 25.095 53.3599 25.2207 53.4309 25.3642C53.4841 25.5257 53.4309 25.6334 53.2889 25.6334C53.147 25.6334 52.9873 25.8308 52.934 26.0821C52.863 26.3333 52.6856 26.5307 52.5081 26.5307C52.3484 26.5487 51.7628 26.5846 51.2304 26.6384C49.8817 26.764 48.2136 26.764 48.0894 26.6384C48.0184 26.5846 48.1249 26.423 48.3024 26.2795C48.604 26.0641 48.604 25.9923 48.4088 25.7411C48.2136 25.5078 47.8765 25.436 47.0779 25.454C45.8889 25.4719 45.1436 25.3463 44.5403 25.0591C44.2918 24.9335 43.9901 24.9335 43.653 25.0412C43.1028 25.2207 41.9139 25.2027 41.2928 25.0053C40.9201 24.8797 40.9201 24.8617 41.488 24.5208C41.8961 24.2695 42.4995 24.1259 43.3335 24.0721C44.0079 24.0362 44.8774 23.8567 45.2501 23.6952C45.7825 23.4799 46.0132 23.4619 46.2616 23.6234C46.4746 23.7491 46.6343 23.767 46.7052 23.6593C46.7585 23.5696 47.1489 23.4978 47.557 23.5158C48.3556 23.5517 49.3671 23.1569 49.2606 22.8518C49.2252 22.7441 48.9945 22.6903 48.746 22.7082C48.2491 22.762 47.9475 22.762 47.628 22.7441C47.5216 22.7261 47.0602 22.78 46.6343 22.8518C46.0309 22.9594 45.8889 22.9415 45.9954 22.78C46.0664 22.6544 46.2616 22.5826 46.4213 22.6364C46.5988 22.6723 46.7407 22.6185 46.7407 22.4928C46.7407 22.3493 46.3681 22.2237 45.8002 22.1698C45.2856 22.116 44.6822 21.9724 44.4693 21.8468C44.0611 21.6314 44.0611 21.6314 44.416 21.4879C44.8952 21.3084 48.1782 21.3622 48.3556 21.5417ZM50.5206 22.3134C50.5206 22.439 50.6448 22.5287 50.7868 22.5108C51.1417 22.457 51.2837 22.2775 51.1594 22.0621C50.9997 21.8288 50.5206 22.0083 50.5206 22.3134Z" fill="white"/>
<path d="M72.8626 23.5517C73.0755 23.8747 73.2352 24.2875 73.2352 24.449C73.2352 24.6105 73.3062 24.7361 73.395 24.7361C73.5724 24.7361 74.0516 26.2795 74.2113 27.3383C74.2822 27.787 74.1048 27.4101 73.7144 26.3513C73.395 25.4181 72.9513 24.2695 72.7384 23.785C72.2947 22.7979 72.348 22.7082 72.8626 23.5517Z" fill="white"/>
<path d="M54.194 23.0671C54.0343 23.103 53.7504 23.103 53.5729 23.0671C53.4132 23.0133 53.5551 22.9774 53.8923 22.9774C54.2295 22.9774 54.3715 23.0133 54.194 23.0671Z" fill="white"/>
<path d="M55.5427 23.2286C55.6846 23.3722 54.9571 24.5566 54.7264 24.5566C54.5666 24.5566 54.5666 24.5208 54.7086 24.4131C54.8151 24.3413 54.8861 24.108 54.8683 23.9106C54.8506 23.5517 55.3475 23.0312 55.5427 23.2286Z" fill="white"/>
<path d="M53.9811 24.1977C54.3005 24.3413 54.2827 24.3592 53.8391 24.3592C53.5729 24.3772 53.36 24.2875 53.36 24.1977C53.36 23.9824 53.5019 23.9824 53.9811 24.1977Z" fill="white"/>
<path d="M55.1523 24.772C55.1523 24.8079 55.1877 25.0771 55.2232 25.4001C55.2942 25.8847 55.2587 25.9385 54.9571 25.8667C54.7441 25.8129 54.5666 25.8847 54.4957 26.0462C54.4424 26.2077 54.2827 26.2795 54.1407 26.2256C53.7503 26.0821 53.8391 25.8308 54.3359 25.7052C54.5844 25.6514 54.8683 25.436 54.9748 25.2207C55.1523 24.9156 55.1345 24.8797 54.8861 24.9694C54.7264 25.0412 54.6021 25.0053 54.6021 24.9156C54.6021 24.772 55.1168 24.6464 55.1523 24.772Z" fill="white"/>
<path d="M54.4247 25.0771C54.4247 25.2565 53.8923 25.5078 53.7681 25.3822C53.7149 25.3463 53.8568 25.2207 54.052 25.095C54.265 24.9874 54.4247 24.9694 54.4247 25.0771Z" fill="white"/>
<path d="M56.4654 26.6922C56.7316 26.7999 56.5187 26.8717 55.7024 26.9794C55.0813 27.0512 54.5312 27.0512 54.4779 26.9973C54.4069 26.9435 54.4602 26.8896 54.5844 26.8896C54.7086 26.8896 54.7441 26.7999 54.6909 26.7102C54.6376 26.6025 54.7086 26.5307 54.8506 26.5307C54.9925 26.5307 55.17 26.6204 55.2232 26.7102C55.2942 26.8358 55.4362 26.8358 55.6669 26.7102C56.0395 26.5128 55.9863 26.5128 56.4654 26.6922Z" fill="white"/>
<path d="M56.6074 27.2665C56.7849 27.3742 57.1043 27.4101 57.3173 27.3562C57.5302 27.3203 57.8674 27.3921 58.0626 27.5357C58.3998 27.8049 58.3998 27.8049 58.0803 27.751C57.8319 27.7152 57.6899 27.8408 57.6012 28.1459C57.4947 28.5586 57.477 28.5586 57.4592 28.1997C57.4415 27.9843 57.2995 27.769 57.1043 27.6972C56.6784 27.5716 55.6669 27.6434 55.7734 27.8049C55.8089 27.8767 55.7556 28.0023 55.6492 28.0561C55.2942 28.2894 55.5604 27.5716 55.9331 27.3203C56.1815 27.1588 56.3767 27.1409 56.6074 27.2665Z" fill="white"/>
<path d="M57.1398 28.1638C56.8914 28.3792 56.146 28.5586 56.2703 28.3612C56.3235 28.2535 56.2703 28.1279 56.1638 28.092C56.0396 28.0382 56.2348 28.0023 56.6074 28.0202C56.9801 28.0202 57.2108 28.092 57.1398 28.1638Z" fill="white"/>
<path d="M56.1815 28.9893C56.3235 29.1329 56.6075 29.2226 56.8381 29.1688C57.0866 29.1329 57.2995 29.1509 57.3528 29.2226C57.3883 29.2765 57.0688 29.3483 56.6607 29.3842C56.1106 29.4021 55.8621 29.3303 55.7911 29.1509C55.6492 28.774 55.8799 28.6663 56.1815 28.9893Z" fill="white"/>
<path d="M57.6899 30.2097C57.7964 30.5327 57.6367 30.6583 57.1043 30.6583C56.6962 30.6583 56.6784 30.6763 56.9978 30.9096C57.2285 31.0711 57.4947 31.107 57.8141 31.0172C58.0803 30.9275 58.3465 30.9096 58.382 30.9634C58.4352 30.9993 58.6659 30.9455 58.8966 30.8378C59.3048 30.6224 59.3048 30.6224 58.9499 30.9634C58.5772 31.3223 57.1753 31.4838 56.9978 31.1788C56.9268 31.089 56.6962 31.0172 56.4477 31.0172C55.8266 31.0172 55.9331 30.8019 56.8204 30.3532C57.4237 30.0482 57.6189 30.0302 57.6899 30.2097Z" fill="white"/>
<path d="M54.194 30.5686C54.6199 30.7122 55.1523 30.7839 55.4007 30.7301C55.6492 30.6942 55.8444 30.7122 55.8444 30.8019C55.8444 31.1429 55.3652 31.3762 54.6554 31.3762C53.9988 31.3762 53.8746 31.3044 53.6261 30.8378C53.4664 30.5327 53.3777 30.2994 53.3954 30.3173C53.4309 30.3353 53.7858 30.443 54.194 30.5686Z" fill="white"/>
<path d="M59.9259 30.9634C59.7839 31.0172 59.5532 31.1429 59.429 31.2505C59.2693 31.3762 59.2338 31.3582 59.3225 31.1249C59.3758 30.9634 59.6065 30.8378 59.8194 30.8557C60.0679 30.8557 60.1033 30.8916 59.9259 30.9634Z" fill="white"/>
<path d="M60.8842 31.771C60.9374 32.0043 60.9197 32.2376 60.8309 32.3273C60.7599 32.3991 60.689 32.2196 60.6712 31.9145C60.6535 31.2685 60.7245 31.2146 60.8842 31.771Z" fill="white"/>
<path d="M59.6065 33.3682C59.8904 33.5297 59.8549 34.1578 59.5532 34.3552C59.4645 34.4091 59.4468 34.3193 59.5 34.1758C59.571 33.9963 59.5177 33.8886 59.3403 33.8886C59.1983 33.8886 59.0386 33.7809 58.9854 33.6553C58.9499 33.5476 58.9144 33.6553 58.9144 33.9245C58.9144 34.1937 58.9676 34.3732 59.0563 34.3193C59.1451 34.2655 59.2161 34.3193 59.2161 34.4091C59.2161 34.6603 58.9321 34.6603 58.5062 34.427C58.2755 34.3014 58.1691 34.3193 58.0803 34.5347C58.0271 34.6962 58.0271 34.9115 58.0981 35.0192C58.1513 35.1448 58.1336 35.1628 58.0448 35.091C57.9738 35.0192 57.7254 35.2884 57.5302 35.7012C57.335 36.1139 57.122 36.419 57.0688 36.3831C56.8913 36.2575 56.3767 36.7959 56.3767 37.101C56.3767 37.3343 56.4122 37.3343 56.5364 37.1548C56.6429 36.9753 56.7139 37.0292 56.8026 37.3881C56.9446 37.9444 56.7671 38.3572 56.5364 37.9983C56.4122 37.7829 56.3767 37.8009 56.359 38.0162C56.359 38.1598 56.3235 38.429 56.288 38.6084C56.2348 38.8776 56.2702 38.8956 56.4832 38.7161C56.6962 38.5367 56.7139 38.5546 56.6252 38.7879C56.43 39.3263 55.0103 40.3313 53.9101 40.7081C52.8631 41.0671 52.7566 41.0671 52.3484 40.7979C52.1177 40.6364 51.7983 40.5466 51.6563 40.6005C51.3547 40.7081 49.6333 40.3492 49.6333 40.1698C49.6333 40.098 49.9172 39.9006 50.2722 39.7032L50.8933 39.3622L50.4141 39.1648C50.1125 39.0392 50.0237 38.9135 50.1479 38.8417C50.2544 38.77 50.3431 38.5905 50.3431 38.429C50.3431 38.1957 50.1834 38.1598 49.4559 38.2495C48.9412 38.3213 48.5686 38.2854 48.5686 38.1957C48.5686 38.088 48.3911 38.0162 48.1604 37.9983C47.8587 37.9803 47.8942 37.9444 48.3201 37.8547C48.6218 37.7829 48.9412 37.6573 49.0477 37.6035C49.1364 37.5496 49.8463 37.3702 50.6093 37.2086C51.7451 36.9753 52.0822 36.9574 52.4194 37.1369C52.934 37.424 54.0875 37.0651 54.8683 36.3831C55.4362 35.8806 56.1283 35.5756 56.5364 35.6653C56.6607 35.6832 56.7316 35.5935 56.6961 35.4679C56.6429 35.3423 56.4655 35.2525 56.3057 35.2884C56.146 35.3243 55.9686 35.2166 55.9153 35.0551C55.8621 34.9115 55.6491 34.7859 55.4717 34.7859C55.2587 34.7859 55.1878 34.6962 55.241 34.5167C55.312 34.3373 55.5959 34.2475 56.0928 34.2475C56.4832 34.2475 56.9446 34.1758 57.0866 34.0681C57.2463 33.9784 57.4237 33.9784 57.5834 34.104C57.7432 34.2475 57.9206 34.1937 58.2933 33.8527C58.8966 33.2964 59.2515 33.1708 59.6065 33.3682Z" fill="white"/>
<path d="M61.6472 38.3752C61.6472 38.9135 61.6118 39.1468 61.5763 38.8597C61.5408 38.5905 61.5408 38.1598 61.5763 37.8727C61.6118 37.6035 61.6472 37.8368 61.6472 38.3752Z" fill="white"/>
<path d="M57.0866 39.7032C57.0866 39.8288 56.9091 39.9903 56.6961 40.0441C56.217 40.1698 56.1638 40.1339 56.3057 39.739C56.3945 39.4878 56.4655 39.4699 56.5719 39.6673C56.6961 39.8467 56.7316 39.8467 56.7316 39.6673C56.7316 39.5596 56.8026 39.4519 56.9091 39.4519C56.9978 39.4519 57.0866 39.5596 57.0866 39.7032Z" fill="white"/>
<path d="M58.3288 39.9903C58.3288 40.098 58.24 40.1698 58.1158 40.1698C58.0093 40.1698 57.7786 40.2954 57.6012 40.4569C57.4237 40.6184 57.1575 40.7081 56.9978 40.6723C56.8026 40.6364 56.9801 40.4748 57.5125 40.2236C57.9561 39.9903 58.3288 39.9006 58.3288 39.9903Z" fill="white"/>
<path d="M59.7484 40.6543C59.7484 40.8158 59.642 40.8876 59.4822 40.8158C59.3403 40.762 59.2338 40.8158 59.2693 40.9414C59.287 41.0671 59.1628 41.1388 59.0031 41.1388C58.8256 41.1209 58.7192 41.1568 58.7547 41.2286C58.7902 41.2824 58.7192 41.4439 58.5772 41.5696C58.4352 41.6952 58.3288 41.7131 58.3288 41.6054C58.3288 41.5157 58.1868 41.426 58.0271 41.426C57.6012 41.426 57.9206 41.1747 58.8966 40.744C59.6242 40.421 59.7484 40.4031 59.7484 40.6543Z" fill="white"/>
<path d="M59.4113 42.8078C59.3048 43.0232 59.1096 43.2744 58.9854 43.3462C58.595 43.5975 57.264 45.2306 57.3528 45.3741C57.3882 45.4459 57.264 45.6972 57.0333 45.9305C56.8204 46.1638 56.6607 46.3253 56.6784 46.2894C56.7671 46.1279 56.1815 45.7331 55.8266 45.7331C55.5249 45.7331 55.4894 45.6792 55.6492 45.4818C55.7556 45.3382 56.1105 45.1229 56.43 44.9973C56.9446 44.7999 57.9739 43.9743 59.1983 42.8078L59.6242 42.413L59.4113 42.8078Z" fill="white"/>
<path d="M56.1283 46.3073C56.1105 46.4329 56.0396 46.6483 55.9686 46.756C55.8621 46.9175 55.9153 46.9534 56.146 46.8816C56.43 46.7919 56.4122 46.8098 56.1105 47.079C55.9153 47.2226 55.7379 47.2944 55.7024 47.2046C55.6846 47.1149 55.241 47.2585 54.7264 47.5277C54.2117 47.7968 53.5374 48.084 53.218 48.1558C52.4017 48.3352 52.4904 47.9404 53.3422 47.7071C53.7149 47.6174 54.0698 47.402 54.1408 47.2585C54.194 47.1149 54.6199 46.8278 55.0813 46.6124C55.5427 46.3971 55.9863 46.1817 56.0573 46.1458C56.1105 46.1099 56.146 46.1996 56.1283 46.3073Z" fill="white"/>
<path d="M57.4415 46.7201C57.6189 46.9354 57.6012 46.9893 57.3705 46.9893C57.193 46.9893 57.1043 46.9175 57.1576 46.8278C57.2285 46.738 57.1576 46.6124 57.0511 46.5765C56.9091 46.5047 56.8914 46.4688 57.0156 46.4688C57.1221 46.4509 57.3173 46.5765 57.4415 46.7201Z" fill="white"/>
<path d="M55.5959 51.3681C55.4007 51.5296 55.1345 51.6553 55.0103 51.6553C54.8861 51.6553 54.7796 51.745 54.7796 51.8527C54.7796 51.9783 54.6376 52.1757 54.4602 52.3193C54.265 52.4987 54.2472 52.5346 54.4247 52.4628C54.6022 52.391 54.5844 52.4269 54.3715 52.6064C54.2117 52.75 54.0698 52.9474 54.0698 53.0371C54.0698 53.1268 53.6971 53.6473 53.218 54.1857C52.5259 54.9932 52.2775 55.1548 51.7628 55.1727C51.053 55.1727 50.6448 55.2804 50.5206 55.4598C50.4674 55.5316 50.3077 55.5137 50.1657 55.4239C49.9705 55.2983 50.0592 55.1906 50.5561 54.9932C51.5321 54.5805 51.6209 54.2574 50.7336 54.401C50.3432 54.4728 49.8818 54.5805 49.7221 54.6343C49.0832 54.8856 49.9528 53.6832 50.6448 53.3601C51.0175 53.1807 51.5321 52.8935 51.7983 52.6961C52.1532 52.4449 52.4549 52.391 52.8808 52.4628C53.4132 52.5705 53.5374 52.5167 53.8746 52.0321C54.1408 51.6553 54.4247 51.4758 54.7086 51.4758C54.9571 51.4758 55.3297 51.3861 55.5427 51.2784C55.9153 51.0989 55.9153 51.0989 55.5959 51.3681Z" fill="white"/>
<path d="M48.8703 54.9753C48.5863 55.1368 48.3201 55.2265 48.2492 55.1727C48.1072 55.0112 48.2492 54.9215 48.8348 54.7958L49.3671 54.6882L48.8703 54.9753Z" fill="white"/>
<path d="M52.5081 55.5496C52.6856 55.5855 52.8276 55.6931 52.8276 55.7829C52.8276 55.8546 52.6856 56.0341 52.5081 56.1597C52.2419 56.393 52.2242 56.3751 52.4549 56.0879C52.6678 55.8188 52.6501 55.7829 52.4017 55.7829C52.2419 55.7829 52.1177 55.6931 52.1177 55.6034C52.1177 55.4957 52.1355 55.4419 52.1532 55.4419C52.1887 55.4598 52.3484 55.4957 52.5081 55.5496Z" fill="white"/>
<path d="M51.7096 56.6263C51.5499 56.6622 51.4079 56.7878 51.4079 56.8776C51.4079 56.9853 51.3192 57.0032 51.2127 56.9314C50.9643 56.7878 51.3547 56.5007 51.7628 56.5187C51.958 56.5366 51.9403 56.5725 51.7096 56.6263Z" fill="white"/>
<path d="M48.817 58.726C48.746 58.9055 47.1489 59.408 47.0069 59.2824C46.9892 59.2644 47.3973 59.0849 47.9297 58.8875C48.4976 58.6722 48.8525 58.6184 48.817 58.726Z" fill="white"/>
<path d="M42.1268 61.2744C41.9671 61.3282 41.8251 61.4538 41.8251 61.5436C41.8251 61.6333 41.3638 61.7051 40.7959 61.6871C39.8908 61.6692 39.8376 61.6512 40.4055 61.5256C41.1508 61.3641 42.5705 61.1488 42.1268 61.2744Z" fill="white"/>
<path d="M47.77 16.8398C47.841 16.9475 47.9475 16.9834 48.0362 16.9295C48.2314 16.8039 48.8703 17.1628 49.7753 17.8986C50.4851 18.4909 50.7158 18.5985 51.4434 18.6703C51.6031 18.6883 51.7096 18.7421 51.6741 18.7959C51.5499 18.9036 52.8986 19.8727 53.0583 19.765C53.218 19.6573 53.7859 20.1598 55.3475 21.757C56.2525 22.6723 56.5187 23.0492 56.3767 23.2107C56.1815 23.444 55.4362 23.3542 55.5782 23.1209C55.6669 22.9774 55.1345 22.439 55.0103 22.5467C54.9748 22.5826 54.7086 22.5646 54.4247 22.4928C54.0698 22.421 53.9456 22.2954 54.0165 22.116C54.0698 21.9724 53.9988 21.8647 53.8568 21.8647C53.5906 21.8647 53.005 21.2545 53.005 20.9495C53.005 20.8597 52.9163 20.8238 52.8098 20.8956C52.6856 20.9674 52.6501 20.8956 52.7211 20.6803C52.7921 20.429 52.6324 20.2316 52.1 19.8906C51.7096 19.6394 51.3014 19.424 51.2127 19.424C51.124 19.4061 51.0175 19.3702 50.9643 19.3523C50.8578 19.2984 50.5739 19.2266 50.3432 19.1907C50.2544 19.1907 50.2189 19.0472 50.2722 18.9036C50.3432 18.76 50.2899 18.6344 50.1835 18.6344C50.077 18.6344 49.9882 18.7062 49.9882 18.8139C49.9882 18.9036 49.8995 18.9933 49.8108 18.9933C49.7043 18.9933 49.6333 18.8677 49.6333 18.7421C49.6333 18.437 48.8525 17.5218 48.7105 17.6474C48.6573 17.7012 48.5153 17.6294 48.4089 17.4859C48.2846 17.3423 48.0894 17.2526 47.9652 17.3064C47.8233 17.3602 47.6813 17.2346 47.6281 17.0372C47.5216 16.6245 47.5926 16.5527 47.77 16.8398Z" fill="white"/>
<path d="M49.3671 18.9754C49.3139 19.0831 49.1187 19.1369 48.9235 19.119C48.4976 19.0831 48.6573 18.8139 49.1187 18.8139C49.3139 18.8139 49.4381 18.8857 49.3671 18.9754Z" fill="white"/>
<path d="M52.4727 22.2416C52.4727 22.3313 52.6324 22.4031 52.8276 22.4031C53.0228 22.4031 53.1825 22.4749 53.1825 22.5826C53.1825 22.6723 53.289 22.7082 53.4309 22.6544C53.5729 22.6005 53.7326 22.6364 53.8036 22.7441C53.8568 22.8518 53.8036 22.9415 53.6794 22.9415C53.5552 22.9594 53.0228 22.9953 52.5259 23.0312C52.0113 23.0671 51.5321 23.0133 51.4789 22.9056C51.4079 22.7979 51.4966 22.762 51.6918 22.8338C51.8871 22.8877 52.1532 22.8518 52.2952 22.762C52.5082 22.6185 52.5082 22.5826 52.2065 22.5646C52.0113 22.5467 51.7806 22.5467 51.7096 22.5646C51.6209 22.5826 51.6031 22.5108 51.6564 22.4211C51.7983 22.2057 52.4727 22.0442 52.4727 22.2416Z" fill="white"/>
<path d="M56.7849 23.5337C57.5125 24.108 59.7839 28.3253 60.1921 29.8507C60.2808 30.1379 60.3695 30.5147 60.405 30.6583C60.5825 31.3044 60.6002 31.7351 60.4405 31.7351C60.3518 31.7351 60.2453 31.5377 60.1743 31.3044C60.0679 30.8378 59.2871 30.6045 58.7724 30.8916C58.595 30.9813 58.3998 30.9634 58.2223 30.8378C58.0271 30.6583 57.9206 30.6583 57.7077 30.8378C57.5657 30.9634 57.3173 30.9993 57.1398 30.9275C56.8559 30.8019 56.8736 30.766 57.264 30.6583C57.5125 30.5865 57.6899 30.425 57.6544 30.2994C57.6189 30.1738 57.6899 29.9943 57.8142 29.9225C58.1158 29.7431 57.8674 29.1867 57.4947 29.2406C57.3173 29.2406 56.9801 29.2585 56.7317 29.2406C56.3235 29.2226 56.3235 29.1867 56.6252 29.0252C56.8736 28.8637 56.9801 28.8816 57.1043 29.0611C57.193 29.2047 57.264 29.2226 57.264 29.1329C57.264 28.8637 57.0333 28.5766 56.7317 28.4689C56.5719 28.415 56.6429 28.3433 56.9446 28.2894C57.2463 28.2356 57.4415 28.2715 57.4415 28.3971C57.4415 28.5048 57.5302 28.4689 57.6189 28.3253C57.7609 28.092 57.8496 28.092 58.1691 28.2894C58.7192 28.6483 58.9144 28.3074 58.453 27.7869C58.24 27.5357 58.0626 27.2486 58.0448 27.1588C57.9739 25.8667 57.2285 25.5975 56.0396 26.441C55.5782 26.764 55.4007 26.8178 55.2233 26.6563C55.099 26.5307 55.0281 26.3871 55.0813 26.2974C55.1523 26.1718 54.8683 26.1 54.5489 26.1538C54.4602 26.1718 54.4602 26.0821 54.5134 25.9744C54.5844 25.8667 54.7974 25.8129 54.9748 25.8667C55.1523 25.9205 55.4362 25.8488 55.6137 25.7052C55.9153 25.4898 55.8976 25.4719 55.5072 25.4539C55.2055 25.4539 55.1168 25.3822 55.2055 25.1847C55.3297 24.8258 54.7974 24.6105 54.5844 24.9335C54.4957 25.0771 54.4247 25.113 54.4247 25.0232C54.4247 24.9514 54.2117 25.0053 53.9633 25.1847C53.6794 25.3642 53.4487 25.418 53.3777 25.3283C53.3245 25.2206 53.147 25.095 53.005 25.0412C52.8098 24.9694 52.8098 24.9335 53.076 24.9335C53.2712 24.9156 53.36 24.8258 53.3067 24.6643C53.2357 24.5028 53.3067 24.3951 53.5019 24.4131C53.6616 24.4131 54.0875 24.3592 54.4247 24.2874C55.0281 24.1618 55.0281 24.1618 54.6909 24.4669C54.3537 24.754 54.3537 24.772 54.7974 24.5028C55.0458 24.3413 55.4894 24.1977 55.7734 24.1618C56.146 24.1259 56.2703 24.0183 56.2348 23.8029C56.1638 23.4081 56.4477 23.2645 56.7849 23.5337ZM53.4309 24.9694C53.2357 25.1668 53.7681 25.113 54.0698 24.9156C54.2827 24.772 54.2472 24.754 53.9456 24.7899C53.7326 24.8258 53.4842 24.8976 53.4309 24.9694Z" fill="white"/>
<path d="M57.0511 27.8049C57.0156 27.9126 56.9269 27.9843 56.8559 27.9843C56.7849 27.9664 56.5187 27.9664 56.2348 27.9664C55.8621 27.9664 55.8089 27.9305 56.0218 27.7869C56.3767 27.5536 57.1398 27.5536 57.0511 27.8049Z" fill="white"/>
<path d="M60.6535 32.3991C60.6535 32.8477 60.6712 32.8657 60.8309 32.5427C60.9552 32.2735 60.9729 32.3811 60.9019 32.9375C60.8487 33.3682 60.8842 33.7092 60.9729 33.7092C61.5763 33.7092 61.665 40.3672 61.1149 42.9514C60.476 45.8946 58.8789 49.5017 57.1221 52.0142C53.6794 56.9135 47.7168 60.7898 42.6237 61.4359C41.7897 61.5436 41.7719 61.5256 42.1978 61.2923C42.606 61.059 43.724 60.7539 44.2209 60.736C44.3096 60.718 44.487 60.6283 44.6113 60.5206C44.9129 60.2335 47.9652 59.0132 48.3911 59.0132C48.5863 59.0132 48.746 58.9414 48.746 58.8516C48.746 58.7799 49.2252 58.403 49.8108 58.0441C50.3964 57.6672 50.8755 57.2544 50.8755 57.0929C50.8755 56.9314 50.982 56.8596 51.1417 56.9314C51.2837 56.9852 51.4079 56.9494 51.4079 56.8596C51.4079 56.7519 51.5499 56.6802 51.7273 56.6802C52.029 56.6802 52.8276 55.9982 52.8276 55.729C52.8276 55.6572 52.7034 55.6034 52.5614 55.6034C52.1177 55.6034 52.2597 55.3163 53.1115 54.401C53.5552 53.9344 54.1585 53.1268 54.4425 52.6064C54.7441 52.086 55.1523 51.6194 55.3475 51.5476C55.9686 51.3502 58.5062 48.748 58.9676 47.8507C59.5355 46.7201 59.5355 46.2894 58.9499 46.415C58.7014 46.4509 58.453 46.5765 58.3998 46.6662C58.3465 46.756 58.1868 46.7201 58.0094 46.5945C57.7964 46.397 57.7254 46.397 57.6544 46.5945C57.6012 46.756 57.5125 46.7739 57.3528 46.6303C57.1931 46.5047 56.9269 46.5227 56.4477 46.7201C55.8089 46.9713 55.7911 46.9713 56.1106 46.7201C56.3058 46.5586 56.6962 46.3791 56.9624 46.3253C57.2818 46.2535 57.4237 46.1458 57.3705 45.9843C57.3173 45.8407 57.3528 45.733 57.4415 45.733C57.548 45.733 57.6189 45.5536 57.6189 45.3203C57.6189 44.9793 58.6305 43.5975 59.9614 42.1438C60.7777 41.2645 61.0794 40.0621 60.4583 40.2236C60.0501 40.3313 59.9969 40.1698 60.3163 39.8467C60.6535 39.5057 60.0324 39.5775 59.358 39.9723C58.8612 40.2415 58.7369 40.2595 58.5417 40.0621C58.3465 39.8467 58.2223 39.8467 57.7609 40.098C57.477 40.2595 57.2818 40.2954 57.335 40.1877C57.406 40.08 57.2995 39.8108 57.1043 39.5955C56.8914 39.3801 56.7317 39.3083 56.7317 39.434C56.7317 39.5596 56.6429 39.5955 56.5365 39.5237C56.4122 39.4519 56.3945 39.3622 56.5187 39.2904C56.6074 39.2366 56.7139 39.0212 56.7494 38.8417C56.7849 38.6443 56.9446 38.4649 57.0866 38.429C57.2995 38.3572 57.3173 38.3751 57.1043 38.5187C56.9446 38.6264 56.9091 38.8238 56.9978 39.0212C57.1043 39.3083 57.1576 39.2904 57.2818 38.8238C57.3705 38.5187 57.4237 37.8368 57.406 37.2984C57.3705 36.3293 57.7432 34.9115 57.9916 35.0551C58.0626 35.1089 58.1691 35.0192 58.2223 34.8577C58.2933 34.6782 58.2578 34.6244 58.1158 34.7141C58.0094 34.7859 57.9739 34.768 58.0271 34.6603C58.0981 34.5526 58.453 34.4988 58.8434 34.5347C59.4823 34.5706 59.571 34.5347 59.7307 34.0501C59.8549 33.6912 59.9969 33.5656 60.1743 33.6374C60.476 33.763 60.5293 33.5656 60.4583 32.4888C60.4405 32.1837 60.476 31.9145 60.5293 31.9145C60.5825 31.9145 60.6357 32.1299 60.6535 32.3991Z" fill="white"/>
</svg>
